# xmcd
#
# Track frame offsets: 
#        150
#        4493
#        12926
#        19778
#        24727
#        30482
#        34866
#        36915
#        39644
#        43118
#        44808
#        50860
#        53867
#        58175
#        61488
#        64299
#        75239
#        86228
#
# Disc length: 1304 seconds
#
# Revision: 0
# Processed by: cddbd v1.5.2PL0 Copyright (c) Steve Scherf et al.
# Submitted via: ExactAudioCopy v0.99pb5
#
DISCID=00051612
DTITLE=Various / 3 Way Split CD
DYEAR=2009
DGENRE=Brutal Death Metal
TTITLE0=Modus Delicti / Leave No Evidences
TTITLE1=Modus Delicti / Molested, Then Suffocated In Her Vomit
TTITLE2=Modus Delicti / Twisted, Perverted, Obsessed
TTITLE3=Modus Delicti / ...And They Lay Dead
TTITLE4=Modus Delicti / Never Give Up Killing!
TTITLE5=Modus Delicti / Untitled Track
TTITLE6=Clitoridus Invaginatus / Biomechanical Dildo
TTITLE7=Clitoridus Invaginatus / Psychopathic Jerkers
TTITLE8=Clitoridus Invaginatus / Manipulated Flesh
TTITLE9=Clitoridus Invaginatus / Synthetic Cadaver
TTITLE10=Clitoridus Invaginatus / Intestinal Blowjob
TTITLE11=Clitoridus Invaginatus / Visceral Radiation
TTITLE12=Clitoridus Invaginatus / Squirtingland
TTITLE13=Clitoridus Invaginatus / Savage Shitbath
TTITLE14=Clitoridus Invaginatus / Mutant Satisfaction
TTITLE15=Dismemberment / Taste The Innards
TTITLE16=Dismemberment / Dismemberment Freak
TTITLE17=Dismemberment / Undefined
EXTD=
EXTT0=
EXTT1=
EXTT2=
EXTT3=
EXTT4=
EXTT5=
EXTT6=
EXTT7=
EXTT8=
EXTT9=
EXTT10=
EXTT11=
EXTT12=
EXTT13=
EXTT14=
EXTT15=
EXTT16=
EXTT17=
PLAYORDER=
